HIERARCHY
ROOT Hips
{
    OFFSET 0.000000 0.000000 0.000000
    CHANNELS 6 Xposition Yposition Zposition Zrotation Xrotation Yrotation
        JOINT Chest
        {
            OFFSET -0.000000 31.571314 -0.000000
            CHANNELS 3 Zrotation Xrotation Yrotation
            JOINT Neck
            {
                OFFSET -0.000000 23.394884 0.000000
                CHANNELS 3 Zrotation Xrotation Yrotation
                JOINT Head
                {
                    OFFSET -0.000000 10.877778 0.000000
                    CHANNELS 3 Zrotation Xrotation Yrotation
                    End Site
                    {
                        OFFSET -0.000000 16.811111 0.000000
                    }
                }
            }
            JOINT LeftCollar
            {
                OFFSET -0.000000 23.394884 0.000000
                CHANNELS 3 Zrotation Xrotation Yrotation
                JOINT LeftShoulder
                {
                    OFFSET 21.500002 -0.000000 0.000000
                    CHANNELS 3 Zrotation Xrotation Yrotation
                    JOINT LeftElbow
                    {
                        OFFSET 24.792776 0.000000 0.000000
                        CHANNELS 3 Zrotation Xrotation Yrotation
                        JOINT LeftWrist
                        {
                            OFFSET 26.439411 0.000000 0.000000
                            CHANNELS 3 Zrotation Xrotation Yrotation
                            End Site
                            {
                                OFFSET 0.000000 -14.833334 0.000000
                            }
                        }
                    }
                }
            }
            JOINT RightCollar
            {
                OFFSET -0.000000 23.394884 0.000000
                CHANNELS 3 Zrotation Xrotation Yrotation
                JOINT RightShoulder
                {
                    OFFSET -21.500002 0.000000 0.000000
                    CHANNELS 3 Zrotation Xrotation Yrotation
                    JOINT RightElbow
                    {
                        OFFSET -24.792776 0.000000 0.000000
                        CHANNELS 3 Zrotation Xrotation Yrotation
                        JOINT RightWrist
                        {
                            OFFSET -26.439411 0.000000 0.000000
                            CHANNELS 3 Zrotation Xrotation Yrotation
                            End Site
                            {
                                OFFSET -0.000000 -14.833334 0.000000
                            }
                        }
                    }
                }
            }
        }
    JOINT LeftHip
    {
        OFFSET 11.866667 0.000000 0.000000
        CHANNELS 3 Zrotation Xrotation Yrotation
        JOINT LeftKnee
        {
            OFFSET -0.000000 -38.580112 0.000000
            CHANNELS 3 Zrotation Xrotation Yrotation
            JOINT LeftAnkle
            {
                OFFSET -0.000000 -41.767254 0.000000
                CHANNELS 3 Zrotation Xrotation Yrotation
                End Site
                {
                    OFFSET -0.000000 -4.944444 16.811111
                }
            }
        }
    }
    JOINT RightHip
    {
        OFFSET -11.866667 0.000000 0.000000
        CHANNELS 3 Zrotation Xrotation Yrotation
        JOINT RightKnee
        {
            OFFSET -0.000000 -38.580112 0.000000
            CHANNELS 3 Zrotation Xrotation Yrotation
            JOINT RightAnkle
            {
                OFFSET -0.000000 -41.767254 0.000000
                CHANNELS 3 Zrotation Xrotation Yrotation
                End Site
                {
                    OFFSET -0.000000 -4.944444 16.811111
                }
            }
        }
    }
}
MOTION
Frames:    14
Frame Time:    0.010000
-101.558701    87.781227    -41.344997    1.557015    -3.785924    57.711720    0.411776    15.823609    -1.948345    0.032642    -5.660817    3.236661    4.863933    -0.778101    3.268371    -17.763794    -1.572966    10.001820    -35.226738    41.415882    -36.502510    19.763588    -18.558838    -85.556305    165.432327    -15.919116    -4.766272    17.098417    -0.449900    -2.818790    -27.430470    75.346336    89.826164    -56.159348    -13.281643    23.861582    -112.354317    3.132107    -43.315002    12.975791    -4.957999    7.684162    -6.718399    26.936619    0.132944    -15.360181    -15.313395    13.553255    -7.194669    -13.966770    6.283016    9.419237    39.880573    -8.497428    4.960287    -13.840871    -25.708307    
-101.755836    87.378708    -41.509605    1.996345    -3.897969    57.857117    0.246512    16.569618    -1.674961    -0.105691    -5.895880    3.188432    5.190155    -0.974055    3.237914    -18.024485    -1.583913    9.907195    -34.268032    41.538219    -37.362255    20.012552    -18.679964    -85.322624    165.515671    -15.697738    -4.747896    17.318655    -0.426192    -2.690184    -33.044971    74.951988    95.401329    -56.905231    -13.048633    22.960234    -112.461678    3.802493    -44.141346    13.134492    -5.421413    7.639146    -7.143163    28.283262    0.061752    -15.243163    -15.910748    13.564095    -7.160712    -13.675524    6.627007    9.567446    39.944389    -10.300097    4.979559    -14.691627    -25.132265    
-101.956467    87.054344    -41.652870    2.390519    -4.058357    57.946114    0.101582    17.325438    -1.371222    -0.240284    -6.099902    3.124985    5.531035    -1.258785    3.198262    -18.307556    -1.588138    9.789042    -33.295231    41.502251    -38.170643    20.167057    -18.669785    -85.076752    165.670609    -15.556735    -4.770896    17.583979    -0.398695    -2.536083    -38.138489    74.397446    100.484894    -57.586887    -12.725621    21.985638    -112.587189    4.494857    -44.989246    13.371135    -5.843087    7.562914    -7.612532    29.536140    0.136469    -15.196505    -16.362593    13.546241    -7.136103    -13.452044    7.243072    9.869730    39.968655    -11.863003    5.061733    -15.362720    -24.621450    
-102.159203    86.818489    -41.780941    2.712737    -4.261865    57.963631    -0.002751    18.071821    -1.044269    -0.385281    -6.277385    3.067548    5.887021    -1.648630    3.173189    -18.589531    -1.596388    9.695015    -32.382725    41.305931    -38.897388    20.223906    -18.533985    -84.831619    165.830734    -15.519492    -4.823962    17.867945    -0.390944    -2.323276    -42.462624    73.748924    104.852585    -58.139538    -12.330829    21.027517    -112.758133    5.190878    -45.796188    13.666088    -6.202903    7.474275    -8.086617    30.622807    0.336960    -15.200288    -16.669491    13.501047    -7.137344    -13.347289    8.095935    10.385786    40.013573    -13.106362    5.206310    -15.834599    -24.249741    
-102.361427    86.675072    -41.898823    2.947050    -4.503184    57.898746    -0.073370    18.786406    -0.697707    -0.473628    -6.388872    2.968963    6.177425    -2.166897    3.111073    -18.836489    -1.593301    9.514958    -31.619467    40.979393    -39.446796    20.093285    -18.245007    -84.638596    166.056961    -15.517417    -4.925348    18.172426    -0.368542    -2.148475    -45.683762    73.052071    108.175400    -58.457085    -11.899761    20.226526    -113.016373    5.904409    -46.485981    13.997435    -6.476406    7.399686    -8.518937    31.482761    0.619839    -15.235407    -16.839542    13.437117    -7.181544    -13.387366    9.110659    11.141149    40.107346    -14.008443    5.422369    -16.091736    -24.014862    
-102.559975    86.622269    -42.009384    3.088612    -4.776066    57.747936    -0.079151    19.470959    -0.344374    -0.597212    -6.524337    2.898077    6.480025    -2.723079    3.086052    -19.039980    -1.582361    9.411523    -31.061058    40.510941    -39.851685    19.817938    -17.827950    -84.499718    166.211197    -15.613770    -5.040079    18.440010    -0.343693    -1.891215    -48.004517    72.361412    110.669014    -58.589188    -11.480886    19.570236    -113.338608    6.551776    -47.015015    14.343637    -6.641561    7.365324    -8.864977    32.075600    0.927724    -15.285464    -16.887499    13.369563    -7.282431    -13.572693    10.182043    12.117821    40.247581    -14.592669    5.717152    -16.115526    -23.850193    
-102.751747    86.653625    -42.113087    3.142235    -5.072257    57.516521    -0.025526    20.106075    0.008235    -0.676423    -6.633907    2.792259    6.692601    -3.310881    3.023889    -19.167486    -1.563185    9.228431    -30.787718    39.988449    -40.008961    19.404160    -17.309736    -84.427048    166.314377    -15.738674    -5.155770    18.680914    -0.302727    -1.681607    -49.382122    71.718842    112.278595    -58.520443    -11.102659    19.115673    -113.731377    7.134027    -47.356091    14.684591    -6.683866    7.390625    -9.089890    32.383949    1.200076    -15.338485    -16.832676    13.318039    -7.447883    -13.882280    11.191283    13.254257    40.412727    -14.899618    6.087111    -15.887697    -23.660330    
-102.934357    86.759415    -42.208107    3.119544    -5.381706    57.218399    0.108061    20.696632    0.344770    -0.792173    -6.809110    2.709723    6.888597    -3.820558    2.986112    -19.215967    -1.530929    9.105639    -30.817640    39.419212    -39.971359    18.871622    -16.718176    -84.424385    166.360184    -15.871383    -5.257304    18.850140    -0.258837    -1.422382    -50.129993    71.140549    113.312981    -58.315865    -10.791460    18.827835    -114.162003    7.607778    -47.510952    15.002875    -6.599623    7.484804    -9.173633    32.412224    1.383756    -15.387225    -16.696903    13.303769    -7.677577    -14.280437    12.026318    14.454756    40.576584    -14.961551    6.517408    -15.399888    -23.359945    
-103.106522    86.927574    -42.290775    3.036167    -5.692871    56.874321    0.320132    21.225746    0.654126    -0.900216    -7.011991    2.616599    7.007456    -4.237315    2.930295    -19.166162    -1.494689    8.954195    -31.174034    38.898708    -39.701172    18.273626    -16.125580    -84.471031    166.318161    -16.017227    -5.321636    18.958941    -0.212848    -1.189538    -50.378345    70.640915    113.880096    -58.003540    -10.555038    18.704445    -114.609779    7.978830    -47.499641    15.284260    -6.396060    7.646113    -9.112174    32.182377    1.440327    -15.429522    -16.502037    13.345000    -7.963061    -14.724576    12.599225    15.606152    40.720997    -14.782969    6.989077    -14.668232    -22.902889    
-103.268097    87.144890    -42.356403    2.909284    -5.993923    56.508556    0.602762    21.684917    0.925641    -1.013936    -7.254316    2.523093    7.064753    -4.522480    2.866088    -19.010216    -1.490356    8.804723    -31.835745    38.516132    -39.231491    17.698130    -15.622679    -84.526588    166.155228    -16.170311    -5.321617    19.003626    -0.179423    -0.975053    -50.377785    70.215973    114.212814    -57.650421    -10.378433    18.695351    -115.030380    8.232183    -47.375072    15.518493    -6.089190    7.863618    -8.916272    31.728283    1.349313    -15.467613    -16.268337    13.454655    -8.288425    -15.172338    12.858391    16.595869    40.842079    -14.334121    7.488050    -13.743520    -22.291658    
-103.419937    87.397804    -42.400185    2.754856    -6.273560    56.145267    0.944478    22.063248    1.150965    -1.137073    -7.529858    2.433002    7.068817    -4.664007    2.795797    -18.769093    -1.424984    8.680161    -32.700600    38.235222    -38.644611    17.117077    -15.107805    -84.600151    166.056488    -16.166235    -5.277663    18.991766    -0.144973    -0.782302    -50.273048    69.848412    114.431747    -57.251366    -10.296358    18.800411    -115.432434    8.452674    -47.143383    15.700499    -5.701548    8.120835    -8.608680    31.091009    1.106886    -15.504947    -16.013168    13.640230    -8.631503    -15.587372    12.792829    17.325491    40.948090    -13.558967    7.999986    -12.706926    -21.569046    
-103.563675    87.672981    -42.418034    2.586111    -6.521755    55.805119    1.328891    22.350504    1.325667    -1.270903    -7.822918    2.346954    7.033883    -4.671749    2.720039    -18.441444    -1.403500    8.603149    -33.696327    38.219608    -38.030045    16.729115    -14.898318    -84.583878    165.743073    -16.205294    -5.133432    18.937193    -0.116328    -0.616540    -50.240139    69.516525    114.694496    -56.878448    -10.254514    18.954695    -115.747902    8.576531    -46.886105    15.830233    -5.259151    8.397848    -8.220219    30.314417    0.724955    -15.544743    -15.750848    13.903116    -8.966236    -15.943251    12.429853    17.719683    41.053051    -12.393380    8.491139    -11.653025    -20.799723    
-103.701576    87.957886    -42.407005    2.412106    -6.730213    55.504036    1.737216    22.539129    1.447202    -1.418689    -8.115647    2.263397    6.982166    -4.571057    2.641817    -18.053720    -1.384896    8.596432    -34.715641    38.450230    -37.441456    16.525955    -14.849113    -84.483757    165.467850    -16.024809    -4.917366    18.856335    -0.087576    -0.480043    -50.369213    69.198517    115.073235    -56.533367    -10.255651    19.144531    -115.992615    8.707154    -46.636116    15.912511    -4.789688    8.672513    -7.785686    29.441338    0.230756    -15.589447    -15.491401    14.237971    -9.265327    -16.224251    11.828422    17.730959    41.166737    -10.788856    8.912139    -10.675683    -20.050497    
-103.836334    88.240952    -42.365307    2.237766    -6.892850    55.253239    2.151065    22.625456    1.514312    -1.586205    -8.396804    2.180575    6.942180    -4.386730    2.562268    -17.632172    -1.340895    8.676711    -35.653595    38.914391    -36.974586    16.582287    -14.998060    -84.263550    165.168182    -15.653329    -4.626019    18.764111    -0.052626    -0.371823    -50.710648    68.870125    115.607025    -56.226521    -10.284405    19.346422    -116.160309    8.854975    -46.426598    15.956035    -4.320530    8.923343    -7.338457    28.512194    -0.337131    -15.641851    -15.240887    14.630435    -9.503536    -16.424032    11.069688    17.342636    41.286720    -8.734225    9.227186    -9.861359    -19.381399    
